<?xml version="1.0" encoding="UTF-8"?>
<svg id="Camada_2" data-name="Camada 2" xmlns="http://www.w3.org/2000/svg" viewBox="0 0 385.23 385.27">
  <defs>
    <style>
      .cls-1 {
        fill: #00a066;
      }

      .cls-2 {
        fill: #fefefe;
      }

      .cls-3 {
        fill: #00e097;
      }
    </style>
  </defs>
  <g id="Camada_2-2" data-name="Camada 2">
    <rect class="cls-3" width="385.23" height="385.23"/>
    <g>
      <path class="cls-1" d="M314.08,165.52c3.7-1.21,7.44,1.75,7.11,5.63-.82,9.56-2.54,25.85-5.6,39.61-4.66,20.94-18.87,77.56-20.77,84.43-1.9,6.87-22.98,80.08-25.14,85.46-2.16,5.37-1.84,4.58-1.84,4.58h-31.74s27.77-155.4,21.85-196.69c-.37-2.61,1.19-5.11,3.7-5.93l52.44-17.09Z"/>
      <path class="cls-1" d="M223.29,385.22h-73c-.87,0-1.6-.64-1.71-1.5-1.58-13.35-12.99-111.25-10.03-131.52.15-1.03,1.16-1.7,2.17-1.41,6.98,1.99,32.92,8.97,49.85,7.55,18.4-1.54,38.13-4.07,48.5-11.89.96-.72,2.34-.32,2.7.82,0,.01,0,.02,0,.03,2.69,8.37-14.62,122.23-16.8,136.47-.13.84-.85,1.46-1.7,1.46Z"/>
      <path class="cls-1" d="M137.63,385.23h-38.66c-8.56-12.61-22-121.35-24.51-142.21-.25-2.07.83-4.07,2.7-5l37.19-18.56c3.13-1.56,6.85.54,7.13,4.03,2.56,32.27,12.92,160.57,16.14,161.74Z"/>
      <path class="cls-2" d="M246.85,223.28c1.01-.11,1.5,1.21.65,1.78-7.36,5-25.44,16.96-33.56,19.51-10.33,3.24-13.83,4.63-23.88,5.39-10.05.76-28.47.37-39.25-5.39-8.42-4.51-12.83-8.15-15.68-11.05-.39-.4.08-1.03.57-.77,6.81,3.63,25.68,12.48,44.4,10.56.83-.09,1.66-.15,2.5-.15,4.57.03,23.87-.82,45.1-15.92,1.63-1.16,3.41-2.1,5.33-2.65,1.08-.31,2.29-.53,3.52-.54,2.37,0,6.97-.43,10.29-.78Z"/>
      <path class="cls-1" d="M246.58,165.24c0,33.11-26.85,59.96-59.96,59.96s-59.96-26.85-59.96-59.96,26.85-59.95,59.96-59.95,59.96,26.85,59.96,59.95Z"/>
    </g>
  </g>
</svg>